<svg xmlns="http://www.w3.org/2000/svg" width="2207" height="2160" fill="none"><path fill="#008774" fill-rule="evenodd" d="M795.226 2159.99c-203.127-15.33-362.155-176.03-379.37-374.82a997.59 997.59 0 0 0-1.507-43v-.22l-.01-.01c-11.683-205.32-87.345-349.76-231.775-451.22C9.182 1168.95-32.094 780.94 22.606 743.783c45.557-30.945 210.538-57.893 278.522-65.737 35.92-4.139 121.498 7.352 131.708-21.113.953-2.635 3.297-387.415 19.077-478.667 57.793-334.362 376.667-107.325 497.4-45.406 113.687 58.303 193.897 58.308 307.587-.005 120.74-61.913 439.61-288.945 497.4 45.412 15.78 91.252 18.12 476.031 19.08 478.671 10.21 28.465 95.78 16.97 131.7 21.118 67.99 7.833 232.97 34.776 278.53 65.727 54.7 37.157 13.41 425.167-159.96 546.937-144.44 101.46-220.09 245.9-231.77 451.22h-.02l.01.24c-.81 14.05-1.32 28.37-1.51 42.99-17.21 198.79-176.25 359.5-379.37 374.83l-615.764-.01Z" clip-rule="evenodd"/><path fill="#fff" fill-rule="evenodd" d="M1583.33 1416.47c55.77-14.94 113.1 18.16 128.04 73.93 14.94 55.76-18.15 113.09-73.92 128.03-55.77 14.95-113.1-18.15-128.04-73.92-14.94-55.77 18.16-113.09 73.92-128.04ZM385.572 1053.78h.005l122.81-75.874c35.802-22.115 81.373-16.228 109.007 15.507l3.425 3.935c26.145 30.022 68.387 37.702 103.422 18.802l580.489-313.034c22.49-12.128 46.67-13.62 70.47-4.357 23.81 9.27 40.62 26.712 49 50.855l112.73 324.976c13.01 37.49-1.18 77.81-34.8 98.89l-558.397 350.18a36.8 36.8 0 0 0-12.837 25.91 36.79 36.79 0 0 0 18.298 33.88 36.779 36.779 0 0 0 33.203 1.85l5.272-2.85h.005l583.146-314.95a48.385 48.385 0 0 1 48.73 2.96 48.405 48.405 0 0 1 21.37 43.91 48.373 48.373 0 0 1-19.39 35.17 82.95 82.95 0 0 1-8.37 5l-630.333 328.82c-22.068 11.51-45.51 12.9-68.783 4.07-23.271-8.83-39.893-25.42-48.775-48.67l-33.987-89.01c-8.117-21.25-7.385-43.67.987-63.13 13.158-30.61 7.838-63.95-14.205-88.93l-249.553-282.87c-20.768-23.54-50.485-33.25-81.152-26.52-15.127 3.31-51.78 37.69-81.005 36.04-19.02-1.07-40.648-27.07-38.493-45.95 1.473-12.86 7.828-18.26 17.711-24.61Zm740.128 593.55c55.77-14.95 113.1 18.15 128.04 73.92 14.94 55.77-18.16 113.09-73.92 128.04-55.78 14.94-113.1-18.16-128.04-73.93-14.94-55.76 18.15-113.09 73.92-128.03Z" clip-rule="evenodd"/></svg>